<svg width="36" height="36" viewBox="0 0 36 36" fill="none" xmlns="http://www.w3.org/2000/svg">
<path d="M0 16.2112C0 7.25798 7.25798 0 16.2112 0V19.7888C16.2112 28.742 8.95317 36 0 36V16.2112Z" fill="#696AE0"/>
<path d="M18.382 8.45175C18.382 3.78398 22.1659 0 26.8337 0H27.5482C32.216 0 36 3.78398 36 8.45175C36 13.1195 32.216 16.9035 27.5482 16.9035H26.8337C22.1659 16.9035 18.382 13.1195 18.382 8.45175Z" fill="#89D34C"/>
<path d="M18.382 27.5483C18.382 22.8805 22.1659 19.0966 26.8337 19.0966H27.5482C32.216 19.0966 36 22.8805 36 27.5483C36 32.2161 32.216 36.0001 27.5482 36.0001H26.8337C22.1659 36.0001 18.382 32.2161 18.382 27.5483Z" fill="#FF6E44"/>
</svg>
