<svg class="icon" xmlns="http://www.w3.org/2000/svg">

    <symbol
        id="google-icon"
        x="0px"
        y="0px"
        width="32"
        height="32"
        viewBox="0 0 48 48"
    >
        <path
            fill="#FFC107"
            d="M43.611,20.083H42V20H24v8h11.303c-1.649,4.657-6.08,8-11.303,8c-6.627,0-12-5.373-12-12c0-6.627,5.373-12,12-12c3.059,0,5.842,1.154,7.961,3.039l5.657-5.657C34.046,6.053,29.268,4,24,4C12.955,4,4,12.955,4,24c0,11.045,8.955,20,20,20c11.045,0,20-8.955,20-20C44,22.659,43.862,21.35,43.611,20.083z"
        ></path>
        <path
            fill="#FF3D00"
            d="M6.306,14.691l6.571,4.819C14.655,15.108,18.961,12,24,12c3.059,0,5.842,1.154,7.961,3.039l5.657-5.657C34.046,6.053,29.268,4,24,4C16.318,4,9.656,8.337,6.306,14.691z"
        ></path>
        <path
            fill="#4CAF50"
            d="M24,44c5.166,0,9.86-1.977,13.409-5.192l-6.19-5.238C29.211,35.091,26.715,36,24,36c-5.202,0-9.619-3.317-11.283-7.946l-6.522,5.025C9.505,39.556,16.227,44,24,44z"
        ></path>
        <path
            fill="#1976D2"
            d="M43.611,20.083H42V20H24v8h11.303c-0.792,2.237-2.231,4.166-4.087,5.571c0.001-0.001,0.002-0.001,0.003-0.002l6.19,5.238C36.971,39.205,44,34,44,24C44,22.659,43.862,21.35,43.611,20.083z"
        ></path>
    </symbol>

    <symbol
        viewBox="0 0 24 24"
        fill="none"
        stroke="currentColor"
        id="profile-icon"
    >
        <path
            strokeLinecap="round"
            strokeLinejoin="round"
            d="M15.75 6a3.75 3.75 0 1 1-7.5 0 3.75 3.75 0 0 1 7.5 0ZM4.501 20.118a7.5 7.5 0 0 1 14.998 0A17.933 17.933 0 0 1 12 21.75c-2.676 0-5.216-.584-7.499-1.632Z"
        />
    </symbol>

    <symbol
        viewBox="0 0 24 24"
        fill="none"
        stroke="currentColor"
        id="email-icon"
    >
        <path
            strokeLinecap="round"
            strokeLinejoin="round"
            d="M21.75 6.75v10.5a2.25 2.25 0 0 1-2.25 2.25h-15a2.25 2.25 0 0 1-2.25-2.25V6.75m19.5 0A2.25 2.25 0 0 0 19.5 4.5h-15a2.25 2.25 0 0 0-2.25 2.25m19.5 0v.243a2.25 2.25 0 0 1-1.07 1.916l-7.5 4.615a2.25 2.25 0 0 1-2.36 0L3.32 8.91a2.25 2.25 0 0 1-1.07-1.916V6.75"
        />
    </symbol>

    <symbol
        fill="none"
        viewBox="0 0 24 24"
        stroke="currentColor"
        id="show-pass"
    >
        <path
            strokeLinecap="round"
            strokeLinejoin="round"
            d="M2.036 12.322a1.012 1.012 0 0 1 0-.639C3.423 7.51 7.36 4.5 12 4.5c4.638 0 8.573 3.007 9.963 7.178.07.207.07.431 0 .639C20.577 16.49 16.64 19.5 12 19.5c-4.638 0-8.573-3.007-9.963-7.178Z"
        />
        <path
            strokeLinecap="round"
            strokeLinejoin="round"
            d="M15 12a3 3 0 1 1-6 0 3 3 0 0 1 6 0Z"
        />
    </symbol>

    <symbol
        fill="none"
        viewBox="0 0 24 24"
        stroke="currentColor"
        id="hide-pass"
    >
        <path
            strokeLinecap="round"
            strokeLinejoin="round"
            d="M3.98 8.223A10.477 10.477 0 0 0 1.934 12C3.226 16.338 7.244 19.5 12 19.5c.993 0 1.953-.138 2.863-.395M6.228 6.228A10.451 10.451 0 0 1 12 4.5c4.756 0 8.773 3.162 10.065 7.498a10.522 10.522 0 0 1-4.293 5.774M6.228 6.228 3 3m3.228 3.228 3.65 3.65m7.894 7.894L21 21m-3.228-3.228-3.65-3.65m0 0a3 3 0 1 0-4.243-4.243m4.242 4.242L9.88 9.88"
        />
    </symbol>

    <symbol
        fill="none"
        viewBox="0 0 24 24"
        stroke="currentColor"
        id="identify"
    >
        <path
            strokeLinecap="round"
            strokeLinejoin="round"
            d="M15 9h3.75M15 12h3.75M15 15h3.75M4.5 19.5h15a2.25 2.25 0 0 0 2.25-2.25V6.75A2.25 2.25 0 0 0 19.5 4.5h-15a2.25 2.25 0 0 0-2.25 2.25v10.5A2.25 2.25 0 0 0 4.5 19.5Zm6-10.125a1.875 1.875 0 1 1-3.75 0 1.875 1.875 0 0 1 3.75 0Zm1.294 6.336a6.721 6.721 0 0 1-3.17.789 6.721 6.721 0 0 1-3.168-.789 3.376 3.376 0 0 1 6.338 0Z"
        />
    </symbol>

    <symbol
        viewBox="0 0 36 36"
        fill="none"
        id="hotelin-logo"
    >
        <path
            d="M0 16.2112C0 7.25798 7.25798 0 16.2112 0V19.7888C16.2112 28.742 8.95317 36 0 36V16.2112Z"
            fill="#696AE0"
        />
        <path
            d="M18.382 8.45175C18.382 3.78398 22.1659 0 26.8337 0H27.5482C32.216 0 36 3.78398 36 8.45175C36 13.1195 32.216 16.9035 27.5482 16.9035H26.8337C22.1659 16.9035 18.382 13.1195 18.382 8.45175Z"
            fill="#89D34C"
        />
        <path
            d="M18.382 27.5483C18.382 22.8805 22.1659 19.0966 26.8337 19.0966H27.5482C32.216 19.0966 36 22.8805 36 27.5483C36 32.2161 32.216 36.0001 27.5482 36.0001H26.8337C22.1659 36.0001 18.382 32.2161 18.382 27.5483Z"
            fill="#FF6E44"
        />
    </symbol>

    <symbol
        fill="none"
        viewBox="0 0 24 24"
        stroke="currentColor"
        id="feed"
    >
        <path
            strokeLinecap="round"
            strokeLinejoin="round"
            d="M6.75 3v2.25M17.25 3v2.25M3 18.75V7.5a2.25 2.25 0 0 1 2.25-2.25h13.5A2.25 2.25 0 0 1 21 7.5v11.25m-18 0A2.25 2.25 0 0 0 5.25 21h13.5A2.25 2.25 0 0 0 21 18.75m-18 0v-7.5A2.25 2.25 0 0 1 5.25 9h13.5A2.25 2.25 0 0 1 21 11.25v7.5m-9-6h.008v.008H12v-.008ZM12 15h.008v.008H12V15Zm0 2.25h.008v.008H12v-.008ZM9.75 15h.008v.008H9.75V15Zm0 2.25h.008v.008H9.75v-.008ZM7.5 15h.008v.008H7.5V15Zm0 2.25h.008v.008H7.5v-.008Zm6.75-4.5h.008v.008h-.008v-.008Zm0 2.25h.008v.008h-.008V15Zm0 2.25h.008v.008h-.008v-.008Zm2.25-4.5h.008v.008H16.5v-.008Zm0 2.25h.008v.008H16.5V15Z"
        />
    </symbol>

    <symbol
        fill="none"
        viewBox="0 0 24 24"
        stroke="currentColor"
        id="map"
    >
        <path
            strokeLinecap="round"
            strokeLinejoin="round"
            d="M15 10.5a3 3 0 1 1-6 0 3 3 0 0 1 6 0Z"
        />
        <path
            strokeLinecap="round"
            strokeLinejoin="round"
            d="M19.5 10.5c0 7.142-7.5 11.25-7.5 11.25S4.5 17.642 4.5 10.5a7.5 7.5 0 1 1 15 0Z"
        />
    </symbol>

    <symbol
        fill="none"
        viewBox="0 0 24 24"
        stroke="currentColor"
        id="profile"
    >
        <path
            strokeLinecap="round"
            strokeLinejoin="round"
            d="M15.75 6a3.75 3.75 0 1 1-7.5 0 3.75 3.75 0 0 1 7.5 0ZM4.501 20.118a7.5 7.5 0 0 1 14.998 0A17.933 17.933 0 0 1 12 21.75c-2.676 0-5.216-.584-7.499-1.632Z"
        />
    </symbol>

    <symbol
        fill="none"
        viewBox="0 0 24 24"
        stroke="currentColor"
        id="search-icon"
    >
        <path
            strokeLinecap="round"
            strokeLinejoin="round"
            d="m21 21-5.197-5.197m0 0A7.5 7.5 0 1 0 5.196 5.196a7.5 7.5 0 0 0 10.607 10.607Z"
        />
    </symbol>

    <symbol
        fill="none"
        viewBox="0 0 24 24"
        stroke="currentColor"
        id="return-icon"
    >
        <path strokeLinecap="round" strokeLinejoin="round"
            d="M9 15 3 9m0 0 6-6M3 9h12a6 6 0 0 1 0 12h-3" />
    </symbol>

    <symbol
        fill="none"
        viewBox="0 0 24 24"
        stroke="currentColor"
        id="edit-icon"
    >
        <path strokeLinecap="round" strokeLinejoin="round"
            d="m16.862 4.487 1.687-1.688a1.875 1.875 0 1 1 2.652 2.652L6.832 19.82a4.5 4.5 0 0 1-1.897 1.13l-2.685.8.8-2.685a4.5 4.5 0 0 1 1.13-1.897L16.863 4.487Zm0 0L19.5 7.125" />
    </symbol>


    <symbol
        fill="none"
        viewBox="0 0 24 24"
        stroke="currentColor"
        id="profile-avatar"
    >
        <path strokeLinecap="round" strokeLinejoin="round"
            d="M17.982 18.725A7.488 7.488 0 0 0 12 15.75a7.488 7.488 0 0 0-5.982 2.975m11.963 0a9 9 0 1 0-11.963 0m11.963 0A8.966 8.966 0 0 1 12 21a8.966 8.966 0 0 1-5.982-2.275M15 9.75a3 3 0 1 1-6 0 3 3 0 0 1 6 0Z" />
    </symbol>

    <symbol
        viewBox="0 0 24 24"
        fill="currentColor"
        id="arrow-right"
    >
        <path fillRule="evenodd"
            d="M16.28 11.47a.75.75 0 0 1 0 1.06l-7.5 7.5a.75.75 0 0 1-1.06-1.06L14.69 12 7.72 5.03a.75.75 0 0 1 1.06-1.06l7.5 7.5Z"
            clipRule="evenodd" />
    </symbol>


    <symbol
        fill="none"
        viewBox="0 0 24 24"
        stroke="currentColor"
        id="shield-icon"
    >
        <path strokeLinecap="round" strokeLinejoin="round"
            d="M9 12.75 11.25 15 15 9.75m-3-7.036A11.959 11.959 0 0 1 3.598 6 11.99 11.99 0 0 0 3 9.749c0 5.592 3.824 10.29 9 11.623 5.176-1.332 9-6.03 9-11.622 0-1.31-.21-2.571-.598-3.751h-.152c-3.196 0-6.1-1.248-8.25-3.285Z" />
    </symbol>

    <symbol
        fill="none"
        viewBox="0 0 24 24"
        stroke="currentColor"
        id="logout-icon"
    >
        <path strokeLinecap="round" strokeLinejoin="round"
            d="M8.25 9V5.25A2.25 2.25 0 0 1 10.5 3h6a2.25 2.25 0 0 1 2.25 2.25v13.5A2.25 2.25 0 0 1 16.5 21h-6a2.25 2.25 0 0 1-2.25-2.25V15m-3 0-3-3m0 0 3-3m-3 3H15" />
    </symbol>

    <symbol
        fill="none"
        viewBox="0 0 24 24"
        stroke="currentColor"
        id="lock-icon"
    >
        <path strokeLinecap="round" strokeLinejoin="round"
            d="M16.5 10.5V6.75a4.5 4.5 0 1 0-9 0v3.75m-.75 11.25h10.5a2.25 2.25 0 0 0 2.25-2.25v-6.75a2.25 2.25 0 0 0-2.25-2.25H6.75a2.25 2.25 0 0 0-2.25 2.25v6.75a2.25 2.25 0 0 0 2.25 2.25Z" />
    </symbol>

    <symbol
        fill="none"
        viewBox="0 0 24 24"
        stroke="currentColor"
        id="bell-icon"
    >
        <path strokeLinecap="round" strokeLinejoin="round"
            d="M14.857 17.082a23.848 23.848 0 0 0 5.454-1.31A8.967 8.967 0 0 1 18 9.75V9A6 6 0 0 0 6 9v.75a8.967 8.967 0 0 1-2.312 6.022c1.733.64 3.56 1.085 5.455 1.31m5.714 0a24.255 24.255 0 0 1-5.714 0m5.714 0a3 3 0 1 1-5.714 0" />
    </symbol>


    <svg
        fill="none"
        viewBox="0 0 24 24"
        stroke="currentColor"
        id="heart-icon"
    >
        <path strokeLinecap="round" strokeLinejoin="round"
            d="M21 8.25c0-2.485-2.099-4.5-4.688-4.5-1.935 0-3.597 1.126-4.312 2.733-.715-1.607-2.377-2.733-4.313-2.733C5.1 3.75 3 5.765 3 8.25c0 7.22 9 12 9 12s9-4.78 9-12Z" />
    </svg>


    <symbol
        fill="none"
        viewBox="0 0 24 24"
        stroke="currentColor"
        id="sun-icon"
    >
        <path strokeLinecap="round" strokeLinejoin="round"
            d="M12 3v2.25m6.364.386-1.591 1.591M21 12h-2.25m-.386 6.364-1.591-1.591M12 18.75V21m-4.773-4.227-1.591 1.591M5.25 12H3m4.227-4.773L5.636 5.636M15.75 12a3.75 3.75 0 1 1-7.5 0 3.75 3.75 0 0 1 7.5 0Z" />
    </symbol>

    <symbol
        fill="none"
        viewBox="0 0 24 24"
        stroke="currentColor"
        id="moon-icon"
    >
        <path strokeLinecap="round" strokeLinejoin="round"
            d="M21.752 15.002A9.72 9.72 0 0 1 18 15.75c-5.385 0-9.75-4.365-9.75-9.75 0-1.33.266-2.597.748-3.752A9.753 9.753 0 0 0 3 11.25C3 16.635 7.365 21 12.75 21a9.753 9.753 0 0 0 9.002-5.998Z" />
    </symbol>

    <symbol
        fill="currentColor"
        viewBox="0 0 20 20"
        id="user-avatar"
    >
        <path
            fillRule="evenodd"
            d="M10 9a3 3 0 100-6 3 3 0 000 6zm-7 9a7 7 0 1114 0H3z"
            clipRule="evenodd"
        ></path>
    </symbol>


    <symbol
        id="warning-icon"
        fill="none"
        viewBox="0 0 24 24"
        stroke="currentColor"
    >
        <path strokeLinecap="round" strokeLinejoin="round"
            d="M12 9v3.75m9-.75a9 9 0 1 1-18 0 9 9 0 0 1 18 0Zm-9 3.75h.008v.008H12v-.008Z" />
    </symbol>


</svg>