<svg class="icon" xmlns="http://www.w3.org/2000/svg">

    <symbol
        id="google-icon"
        x="0px"
        y="0px"
        width="32"
        height="32"
        viewBox="0 0 48 48"
    >
        <path
            fill="#FFC107"
            d="M43.611,20.083H42V20H24v8h11.303c-1.649,4.657-6.08,8-11.303,8c-6.627,0-12-5.373-12-12c0-6.627,5.373-12,12-12c3.059,0,5.842,1.154,7.961,3.039l5.657-5.657C34.046,6.053,29.268,4,24,4C12.955,4,4,12.955,4,24c0,11.045,8.955,20,20,20c11.045,0,20-8.955,20-20C44,22.659,43.862,21.35,43.611,20.083z"
        ></path>
        <path
            fill="#FF3D00"
            d="M6.306,14.691l6.571,4.819C14.655,15.108,18.961,12,24,12c3.059,0,5.842,1.154,7.961,3.039l5.657-5.657C34.046,6.053,29.268,4,24,4C16.318,4,9.656,8.337,6.306,14.691z"
        ></path>
        <path
            fill="#4CAF50"
            d="M24,44c5.166,0,9.86-1.977,13.409-5.192l-6.19-5.238C29.211,35.091,26.715,36,24,36c-5.202,0-9.619-3.317-11.283-7.946l-6.522,5.025C9.505,39.556,16.227,44,24,44z"
        ></path>
        <path
            fill="#1976D2"
            d="M43.611,20.083H42V20H24v8h11.303c-0.792,2.237-2.231,4.166-4.087,5.571c0.001-0.001,0.002-0.001,0.003-0.002l6.19,5.238C36.971,39.205,44,34,44,24C44,22.659,43.862,21.35,43.611,20.083z"
        ></path>
    </symbol>

    <symbol
        viewBox="0 0 24 24"
        fill="none"
        stroke="currentColor"
        id="profile-icon"
    >
        <path
            strokeLinecap="round"
            strokeLinejoin="round"
            d="M15.75 6a3.75 3.75 0 1 1-7.5 0 3.75 3.75 0 0 1 7.5 0ZM4.501 20.118a7.5 7.5 0 0 1 14.998 0A17.933 17.933 0 0 1 12 21.75c-2.676 0-5.216-.584-7.499-1.632Z"
        />
    </symbol>

    <symbol
        viewBox="0 0 24 24"
        fill="none"
        stroke="currentColor"
        id="email-icon"
    >
        <path
            strokeLinecap="round"
            strokeLinejoin="round"
            d="M21.75 6.75v10.5a2.25 2.25 0 0 1-2.25 2.25h-15a2.25 2.25 0 0 1-2.25-2.25V6.75m19.5 0A2.25 2.25 0 0 0 19.5 4.5h-15a2.25 2.25 0 0 0-2.25 2.25m19.5 0v.243a2.25 2.25 0 0 1-1.07 1.916l-7.5 4.615a2.25 2.25 0 0 1-2.36 0L3.32 8.91a2.25 2.25 0 0 1-1.07-1.916V6.75"
        />
    </symbol>

    <symbol
        fill="none"
        viewBox="0 0 24 24"
        stroke="currentColor"
        id="show-pass"
    >
        <path
            strokeLinecap="round"
            strokeLinejoin="round"
            d="M2.036 12.322a1.012 1.012 0 0 1 0-.639C3.423 7.51 7.36 4.5 12 4.5c4.638 0 8.573 3.007 9.963 7.178.07.207.07.431 0 .639C20.577 16.49 16.64 19.5 12 19.5c-4.638 0-8.573-3.007-9.963-7.178Z"
        />
        <path
            strokeLinecap="round"
            strokeLinejoin="round"
            d="M15 12a3 3 0 1 1-6 0 3 3 0 0 1 6 0Z"
        />
    </symbol>

    <symbol
        fill="none"
        viewBox="0 0 24 24"
        stroke="currentColor"
        id="hide-pass"
    >
        <path
            strokeLinecap="round"
            strokeLinejoin="round"
            d="M3.98 8.223A10.477 10.477 0 0 0 1.934 12C3.226 16.338 7.244 19.5 12 19.5c.993 0 1.953-.138 2.863-.395M6.228 6.228A10.451 10.451 0 0 1 12 4.5c4.756 0 8.773 3.162 10.065 7.498a10.522 10.522 0 0 1-4.293 5.774M6.228 6.228 3 3m3.228 3.228 3.65 3.65m7.894 7.894L21 21m-3.228-3.228-3.65-3.65m0 0a3 3 0 1 0-4.243-4.243m4.242 4.242L9.88 9.88"
        />
    </symbol>

    <symbol
        fill="none"
        viewBox="0 0 24 24"
        stroke="currentColor"
        id="identify"
    >
        <path
            strokeLinecap="round"
            strokeLinejoin="round"
            d="M15 9h3.75M15 12h3.75M15 15h3.75M4.5 19.5h15a2.25 2.25 0 0 0 2.25-2.25V6.75A2.25 2.25 0 0 0 19.5 4.5h-15a2.25 2.25 0 0 0-2.25 2.25v10.5A2.25 2.25 0 0 0 4.5 19.5Zm6-10.125a1.875 1.875 0 1 1-3.75 0 1.875 1.875 0 0 1 3.75 0Zm1.294 6.336a6.721 6.721 0 0 1-3.17.789 6.721 6.721 0 0 1-3.168-.789 3.376 3.376 0 0 1 6.338 0Z"
        />
    </symbol>

    <symbol
        viewBox="0 0 36 36"
        fill="none"
        id="hotelin-logo"
    >
        <path
            d="M0 16.2112C0 7.25798 7.25798 0 16.2112 0V19.7888C16.2112 28.742 8.95317 36 0 36V16.2112Z"
            fill="#696AE0"
        />
        <path
            d="M18.382 8.45175C18.382 3.78398 22.1659 0 26.8337 0H27.5482C32.216 0 36 3.78398 36 8.45175C36 13.1195 32.216 16.9035 27.5482 16.9035H26.8337C22.1659 16.9035 18.382 13.1195 18.382 8.45175Z"
            fill="#89D34C"
        />
        <path
            d="M18.382 27.5483C18.382 22.8805 22.1659 19.0966 26.8337 19.0966H27.5482C32.216 19.0966 36 22.8805 36 27.5483C36 32.2161 32.216 36.0001 27.5482 36.0001H26.8337C22.1659 36.0001 18.382 32.2161 18.382 27.5483Z"
            fill="#FF6E44"
        />
    </symbol>

    <symbol
        fill="none"
        viewBox="0 0 24 24"
        stroke="currentColor"
        id="feed"
    >
        <path
            strokeLinecap="round"
            strokeLinejoin="round"
            d="M6.75 3v2.25M17.25 3v2.25M3 18.75V7.5a2.25 2.25 0 0 1 2.25-2.25h13.5A2.25 2.25 0 0 1 21 7.5v11.25m-18 0A2.25 2.25 0 0 0 5.25 21h13.5A2.25 2.25 0 0 0 21 18.75m-18 0v-7.5A2.25 2.25 0 0 1 5.25 9h13.5A2.25 2.25 0 0 1 21 11.25v7.5m-9-6h.008v.008H12v-.008ZM12 15h.008v.008H12V15Zm0 2.25h.008v.008H12v-.008ZM9.75 15h.008v.008H9.75V15Zm0 2.25h.008v.008H9.75v-.008ZM7.5 15h.008v.008H7.5V15Zm0 2.25h.008v.008H7.5v-.008Zm6.75-4.5h.008v.008h-.008v-.008Zm0 2.25h.008v.008h-.008V15Zm0 2.25h.008v.008h-.008v-.008Zm2.25-4.5h.008v.008H16.5v-.008Zm0 2.25h.008v.008H16.5V15Z"
        />
    </symbol>

    <symbol
        fill="none"
        viewBox="0 0 24 24"
        stroke="currentColor"
        id="map"
    >
        <path
            strokeLinecap="round"
            strokeLinejoin="round"
            d="M15 10.5a3 3 0 1 1-6 0 3 3 0 0 1 6 0Z"
        />
        <path
            strokeLinecap="round"
            strokeLinejoin="round"
            d="M19.5 10.5c0 7.142-7.5 11.25-7.5 11.25S4.5 17.642 4.5 10.5a7.5 7.5 0 1 1 15 0Z"
        />
    </symbol>

    <symbol
        fill="none"
        viewBox="0 0 24 24"
        stroke="currentColor"
        id="profile"
    >
        <path
            strokeLinecap="round"
            strokeLinejoin="round"
            d="M15.75 6a3.75 3.75 0 1 1-7.5 0 3.75 3.75 0 0 1 7.5 0ZM4.501 20.118a7.5 7.5 0 0 1 14.998 0A17.933 17.933 0 0 1 12 21.75c-2.676 0-5.216-.584-7.499-1.632Z"
        />
    </symbol>

    <symbol
        fill="none"
        viewBox="0 0 24 24"
        stroke="currentColor"
        id="search-icon"
    >
        <path
            strokeLinecap="round"
            strokeLinejoin="round"
            d="m21 21-5.197-5.197m0 0A7.5 7.5 0 1 0 5.196 5.196a7.5 7.5 0 0 0 10.607 10.607Z"
        />
    </symbol>

</svg>